<svg width="77" height="77" viewBox="0 0 77 77" fill="none" xmlns="http://www.w3.org/2000/svg">
<g opacity="0.2">
<rect x="1" y="1" width="75" height="75" rx="10" stroke="#89D32A" stroke-width="1.5625"/>
</g>
<path fill-rule="evenodd" clip-rule="evenodd" d="M30.7575 33.7992C33.0574 30.5309 34.4929 26.7807 35.0689 22.535C35.1237 22.1305 35.41 21.7942 35.803 21.6726C39.7636 20.4469 42.0153 22.3946 41.9781 26.8359C41.9709 27.698 41.9311 28.4642 41.8464 29.6362C41.6572 32.2539 41.6723 32.9683 41.9654 33.449C42.2471 33.9111 43.1617 34.0688 45.3248 33.6581C46.0074 33.5286 46.6921 33.3817 47.4505 33.2052C47.7853 33.1274 50.1967 32.539 50.8131 32.4059C51.9889 32.152 52.8326 32.0445 53.5744 32.09C55.5842 32.2133 56.6507 33.5073 56.835 35.9864C57.1595 40.3523 56.1567 49.1218 55.1563 52.352C54.134 55.6528 52.3512 56.8987 48.0718 56.9739C45.3204 57.0223 41.0886 57.0223 35.3568 56.9738C33.8936 56.9398 32.5676 56.6565 31.3881 56.1267C31.7192 55.4412 31.9046 54.6733 31.9046 53.8625V37.0625C31.9046 35.8292 31.4756 34.6952 30.7575 33.7992Z" fill="#89D32A"/>
<path opacity="0.3" fill-rule="evenodd" clip-rule="evenodd" d="M24.4901 33.9124C22.7352 33.9124 21.3125 35.3227 21.3125 37.0624V53.8624C21.3125 55.6021 22.7352 57.0124 24.4901 57.0124H26.6086C28.3635 57.0124 29.7862 55.6021 29.7862 53.8624V37.0624C29.7862 35.3227 28.3635 33.9124 26.6086 33.9124H24.4901Z" fill="#89D32A"/>
</svg>
