<svg width="77" height="77" viewBox="0 0 77 77" fill="none" xmlns="http://www.w3.org/2000/svg">
<g opacity="0.2">
<rect x="1" y="1" width="75" height="75" rx="15.625" stroke="#89D32A" stroke-width="1.5625"/>
</g>
<path fill-rule="evenodd" clip-rule="evenodd" d="M28.1461 32.1459C35.8983 33.2399 41.9618 30.4143 46.1843 23.7071C46.2055 23.6735 46.2249 23.639 46.2424 23.6038C47.8674 25.4324 48.8545 27.8405 48.8545 30.4792V34.2708C48.8545 38.1029 46.7532 41.548 43.4958 43.3427C43.0714 43.0478 42.5558 42.875 41.9999 42.875C40.5501 42.875 39.3749 44.0503 39.3749 45.5C39.3749 46.9498 40.5501 48.125 41.9999 48.125C42.7341 48.125 43.3979 47.8236 43.8743 47.3377C43.1644 49.5676 41.0267 51.1875 38.4999 51.1875C35.3956 51.1875 32.8787 48.7428 32.8749 45.7257L33.7049 43.4501C30.3337 41.6879 28.1461 38.1808 28.1461 34.2708V32.1459ZM28.1668 29.822C28.5058 24.4097 33.0027 20.125 38.5004 20.125C40.8176 20.125 42.9569 20.8861 44.6821 22.172C44.6291 22.2266 44.5804 22.2883 44.5371 22.3571C40.7369 28.3936 35.3657 30.872 28.2685 29.8311C28.2344 29.8261 28.2005 29.8231 28.1668 29.822ZM30.7136 46.8711C31.2852 50.5528 34.5536 53.375 38.5 53.375C42.4472 53.375 45.7161 50.5516 46.2867 46.8688L50.4826 47.7149C52.1494 48.04 53.4774 49.3003 53.8893 50.9478L55.0993 55.7878C55.2374 56.34 54.8197 56.875 54.2504 56.875H22.7504C22.1812 56.875 21.7635 56.34 21.9016 55.7878L23.11 50.9541C23.5229 49.3026 24.8562 48.0405 26.5195 47.7206L30.7136 46.8711Z" fill="#89D32A"/>
<path opacity="0.3" fill-rule="evenodd" clip-rule="evenodd" d="M41.9998 46.3749C42.4831 46.3749 42.8748 45.9831 42.8748 45.4999C42.8748 45.0166 42.4831 44.6249 41.9998 44.6249C41.5166 44.6249 41.1248 45.0166 41.1248 45.4999C41.1248 45.9831 41.5166 46.3749 41.9998 46.3749Z" fill="#89D32A"/>
<path opacity="0.3" fill-rule="evenodd" clip-rule="evenodd" d="M50.4993 28.8752H50.7501C52.1998 28.8752 53.3751 30.0504 53.3751 31.5002V35.0002C53.3751 36.4499 52.1998 37.6252 50.7501 37.6252H50.1318C50.4412 36.5513 50.6047 35.4242 50.6047 34.271V30.4793C50.6047 29.9355 50.5688 29.4 50.4993 28.8752Z" fill="#89D32A"/>
<path opacity="0.3" fill-rule="evenodd" clip-rule="evenodd" d="M26.8691 37.6252H26.2499C24.8002 37.6252 23.6249 36.4499 23.6249 35.0002V31.5002C23.6249 30.0504 24.8002 28.8752 26.2499 28.8752H26.5015C26.432 29.4 26.3962 29.9355 26.3962 30.4793V34.271C26.3962 35.4242 26.5596 36.5513 26.8691 37.6252Z" fill="#89D32A"/>
</svg>
