<svg width="77" height="77" viewBox="0 0 77 77" fill="none" xmlns="http://www.w3.org/2000/svg">
<rect x="1" y="1" width="75" height="75" rx="10" stroke="#E7F6D4"/>
<path fill-rule="evenodd" clip-rule="evenodd" d="M29.5648 50.196C28.9754 48.5992 28.507 46.8317 28.1804 44.9387C26.6298 43.6663 25.2589 42.3254 24.0971 40.9593C22.6007 43.5762 22.1767 46.0104 23.1408 47.7334C24.123 49.4888 26.4854 50.3041 29.5648 50.196ZM30.7815 52.9317C26.0919 53.346 22.2983 52.0983 20.6074 49.0762C18.9834 46.1738 19.7411 42.3389 22.2495 38.5C19.7411 34.6612 18.9834 30.8262 20.6074 27.9238C22.2983 24.9017 26.0919 23.654 30.7815 24.0683C32.7203 20.4289 35.4228 18.1875 38.5 18.1875C41.5772 18.1875 44.2797 20.4289 46.2185 24.0683C50.9081 23.654 54.7017 24.9017 56.3926 27.9238C58.0166 30.8262 57.2589 34.6612 54.7505 38.5C57.2589 42.3389 58.0166 46.1739 56.3926 49.0762C54.7017 52.0983 50.9081 53.346 46.2185 52.9317C44.2797 56.5711 41.5772 58.8125 38.5 58.8125C35.4228 58.8125 32.7203 56.5711 30.7815 52.9317ZM52.9027 36.0406C54.3991 33.4237 54.823 30.9896 53.859 29.2666C52.8768 27.5113 50.5145 26.696 47.4352 26.804C48.0246 28.4009 48.493 30.1683 48.8196 32.0613C50.3701 33.3337 51.7409 34.6745 52.9027 36.0406ZM43.2291 24.5323C41.8773 22.3309 40.2252 21.0218 38.4999 21.0218C36.7746 21.0218 35.1225 22.3309 33.7707 24.5323C35.2982 24.8654 36.8861 25.351 38.5 25.986C40.1139 25.351 41.7016 24.8654 43.2291 24.5323ZM42.2202 27.6968C43.0081 27.4694 43.7783 27.2848 44.5241 27.1432C44.8222 27.8847 45.0932 28.6796 45.3326 29.5199C44.9145 29.2493 44.4877 28.9841 44.0525 28.7248C43.4429 28.3617 42.8316 28.0189 42.2202 27.6968ZM34.7797 27.6968C33.9918 27.4694 33.2216 27.2848 32.4757 27.1432C32.1776 27.8848 31.9066 28.6797 31.6671 29.5201C32.0853 29.2494 32.5122 28.9841 32.9475 28.7248C33.557 28.3617 34.1684 28.019 34.7797 27.6968ZM30.8141 33.5986C31.937 32.7272 33.1546 31.8934 34.4534 31.1196C35.8025 30.3159 37.1608 29.6234 38.4999 29.0427C39.8389 29.6234 41.1973 30.3159 42.5463 31.1196C43.8452 31.8934 45.0628 32.7272 46.1857 33.5986C46.4046 35.1557 46.5234 36.8008 46.5234 38.5C46.5234 40.1992 46.4046 41.8443 46.1857 43.4014C45.0628 44.2728 43.8452 45.1066 42.5463 45.8804C41.1973 46.6841 39.8389 47.3766 38.4999 47.9573C37.1608 47.3766 35.8025 46.6841 34.4534 45.8804C33.1546 45.1066 31.937 44.2728 30.8141 43.4014C30.5952 41.8444 30.4764 40.1992 30.4764 38.5C30.4764 36.8008 30.5952 35.1556 30.8141 33.5986ZM28.1804 32.0613C28.507 30.1683 28.9754 28.4009 29.5648 26.804C26.4854 26.696 24.123 27.5112 23.1408 29.2666C22.1767 30.9896 22.6007 33.4238 24.0971 36.0408C25.2589 34.6746 26.6298 33.3337 28.1804 32.0613ZM25.7795 38.5C26.352 37.7792 26.9951 37.057 27.7026 36.3436C27.6643 37.0519 27.6447 37.7714 27.6447 38.5C27.6447 39.2287 27.6643 39.9481 27.7026 40.6564C26.9951 39.943 26.352 39.2208 25.7795 38.5ZM38.5 51.014C40.1139 51.649 41.7016 52.1346 43.2291 52.4677C41.8773 54.6691 40.2252 55.9782 38.4999 55.9782C36.7746 55.9782 35.1225 54.6691 33.7707 52.4677C35.2982 52.1347 36.8861 51.649 38.5 51.014ZM34.7797 49.3032C33.9918 49.5306 33.2215 49.7152 32.4757 49.8568C32.1776 49.1153 31.9066 48.3203 31.6671 47.48C32.0853 47.7506 32.5122 48.0159 32.9475 48.2752C33.557 48.6383 34.1684 48.9811 34.7797 49.3032ZM42.2202 49.3032C42.8316 48.9811 43.443 48.6384 44.0525 48.2752C44.4877 48.0159 44.9145 47.7507 45.3327 47.4801C45.0932 48.3204 44.8222 49.1153 44.5241 49.8568C43.7783 49.7152 43.0081 49.5307 42.2202 49.3032ZM48.8196 44.9387C48.493 46.8317 48.0246 48.5992 47.4352 50.196C50.5145 50.304 52.8768 49.4887 53.859 47.7334C54.823 46.0104 54.3991 43.5763 52.9027 40.9595C51.7409 42.3255 50.3701 43.6664 48.8196 44.9387ZM49.2974 40.6561C50.0048 39.9428 50.6478 39.2207 51.2203 38.5C50.6478 37.7793 50.0048 37.0572 49.2974 36.3439C49.3357 37.0521 49.3553 37.7714 49.3553 38.5C49.3553 39.2286 49.3357 39.9479 49.2974 40.6561Z" fill="#89D32A"/>
<path opacity="0.3" fill-rule="evenodd" clip-rule="evenodd" d="M38.5852 43.2917C35.9493 43.2917 33.8125 41.1697 33.8125 38.5521C33.8125 35.9345 35.9493 33.8125 38.5852 33.8125C41.2211 33.8125 43.358 35.9345 43.358 38.5521C43.358 41.1697 41.2211 43.2917 38.5852 43.2917Z" fill="#89D32A"/>
</svg>
