<svg width="77" height="77" viewBox="0 0 77 77" fill="none" xmlns="http://www.w3.org/2000/svg">
<g opacity="0.2">
<rect x="1" y="1" width="75" height="75" rx="10" stroke="#89D32A" stroke-width="1.5625"/>
</g>
<path fill-rule="evenodd" clip-rule="evenodd" d="M53.9847 25.4895L38.2347 19.802C38.0426 19.7327 37.8324 19.7327 37.6403 19.802L21.8903 25.4895C21.5436 25.6147 21.3125 25.9438 21.3125 26.3125V38.125C21.3125 47.401 26.8523 53.5564 37.7107 56.4701C37.8612 56.5105 38.0198 56.5099 38.17 56.4685C49.0248 53.4763 54.5625 47.3233 54.5625 38.125V26.3125C54.5625 25.9438 54.3314 25.6147 53.9847 25.4895ZM31.8968 36.5944C32.2469 36.2613 32.8007 36.2751 33.1338 36.6251L36.6735 40.345L44.1066 32.2819C44.4342 31.9266 44.9877 31.9041 45.343 32.2317C45.6983 32.5592 45.7209 33.1128 45.3933 33.4681L37.327 42.2181C36.9842 42.5899 36.3984 42.5946 36.0498 42.2282L31.8661 37.8315C31.533 37.4814 31.5467 36.9276 31.8968 36.5944Z" fill="#89D32A"/>
</svg>
