<svg width="77" height="77" viewBox="0 0 77 77" fill="none" xmlns="http://www.w3.org/2000/svg">
<g opacity="0.2">
<rect x="1" y="1" width="75" height="75" rx="10" stroke="#89D32A" stroke-width="1.5625"/>
</g>
<path fill-rule="evenodd" clip-rule="evenodd" d="M39.756 41.3087C40.8445 38.944 39.8413 36.9956 37.0702 35.7889L32.4793 33.8932C30.9919 33.2792 29.2877 33.5322 28.0427 34.5521L23.8206 38.0104L23.6978 39.2417L23.5 49.3125V51.0625H28.6083L39.0263 54.0226C40.3406 54.3961 41.7537 54.1332 42.8461 53.3122C49.7106 48.1525 54.2971 44.6684 54.9917 44.0226C56.6756 42.4569 57.3385 40.7161 56.1387 39.0001C55.1689 37.6131 53.5334 37.4651 51.5063 38.3828L41.6471 43.3971L38.8749 42.5155C39.2323 42.2073 39.5271 41.806 39.756 41.3087Z" fill="#89D32A"/>
<path opacity="0.3" fill-rule="evenodd" clip-rule="evenodd" d="M49.2304 23.0644H47.125V22.626C47.125 21.9007 46.5374 21.3125 45.8125 21.3125C45.0875 21.3125 44.5 21.9007 44.5 22.626V23.0644H44.0869C42.3954 23.0644 41.0244 24.4369 41.0244 26.1298V27.0071C41.0244 28.6999 42.3954 30.0725 44.0869 30.0725H47.5625C47.804 30.0725 48 30.2687 48 30.5109V31.3855C48 31.6278 47.804 31.824 47.5625 31.824H43.5466C43.3523 31.3632 42.9032 31.0376 42.3768 31.0216C41.6521 30.9995 41.047 31.5695 41.025 32.2945L41.0006 33.0976C40.9781 33.8381 41.5719 34.4509 42.3125 34.4509H44.5V34.874C44.5 35.5993 45.0875 36.1875 45.8125 36.1875C46.5374 36.1875 47.125 35.5993 47.125 34.874V34.4509H47.5625C49.2539 34.4509 50.625 33.0784 50.625 31.3855V30.5109C50.625 28.8181 49.2539 27.4455 47.5625 27.4455H44.0869C43.8454 27.4455 43.6494 27.2493 43.6494 27.0071V26.1298C43.6494 25.8875 43.8454 25.6913 44.0869 25.6913H48.0897C48.3178 26.0917 48.7477 26.3545 49.2304 26.3545C49.9554 26.3545 50.5429 25.7663 50.5429 25.041V24.3779C50.5429 23.6526 49.9554 23.0644 49.2304 23.0644ZM22.625 35.75H23.0625V52.375H22.625C21.9001 52.375 21.3125 52.9626 21.3125 53.6875C21.3125 54.4124 21.9001 55 22.625 55H24.375C25.0999 55 25.6875 54.4124 25.6875 53.6875V34.4375C25.6875 33.7126 25.0999 33.125 24.375 33.125H22.625C21.9001 33.125 21.3125 33.7126 21.3125 34.4375C21.3125 35.1624 21.9001 35.75 22.625 35.75Z" fill="#89D32A"/>
</svg>
