<svg width="94" height="94" viewBox="0 0 94 94" fill="none" xmlns="http://www.w3.org/2000/svg">
<g opacity="0.2">
<rect x="1" y="1" width="92" height="92" rx="10" stroke="#89D32A" stroke-width="1.4375"/>
</g>
<path fill-rule="evenodd" clip-rule="evenodd" d="M52.544 58.2125H40.881C40.323 54.3114 36.9679 51.3125 32.9125 51.3125C28.9129 51.3125 25.5946 54.2293 24.9687 58.0518C23.5735 57.6094 22.5625 56.304 22.5625 54.7625V46.1055C22.5625 43.9275 23.793 41.9365 25.741 40.9625L27.5339 39.8125H58.8636L66.2402 41.3953C68.0086 41.7489 69.4509 42.8915 70.2308 44.4125H67.4125C65.5071 44.4125 63.9625 45.9571 63.9625 47.8625C63.9625 49.7679 65.5071 51.3125 67.4125 51.3125H70.8625V54.7625C70.8625 56.304 69.8515 57.6094 68.4563 58.0518C67.8304 54.2293 64.5121 51.3125 60.5125 51.3125C56.4571 51.3125 53.102 54.3114 52.544 58.2125ZM57.4836 37.5125H43.2625V28.3125H48.708C50.7278 28.3125 52.5995 29.3722 53.6386 31.1041L57.4836 37.5125ZM28.4539 37.5125L30.6881 31.927C31.5613 29.744 33.6756 28.3125 36.0268 28.3125H40.9625V37.5125H28.4539ZM70.8625 47.0337V49.0126H67.4125C66.7774 49.0126 66.2625 48.4978 66.2625 47.8626C66.2625 47.2275 66.7774 46.7126 67.4125 46.7126H70.8536C70.8595 46.819 70.8625 46.9261 70.8625 47.0337ZM46.7125 46.7124H49.0125C49.6476 46.7124 50.1625 46.1975 50.1625 45.5624C50.1625 44.9272 49.6476 44.4124 49.0125 44.4124H46.7125C46.0774 44.4124 45.5625 44.9272 45.5625 45.5624C45.5625 46.1975 46.0774 46.7124 46.7125 46.7124Z" fill="#89D32A"/>
<path opacity="0.3" fill-rule="evenodd" clip-rule="evenodd" d="M60.5125 65.1125C57.3369 65.1125 54.7625 62.5382 54.7625 59.3625C54.7625 56.1869 57.3369 53.6125 60.5125 53.6125C63.6881 53.6125 66.2625 56.1869 66.2625 59.3625C66.2625 62.5382 63.6881 65.1125 60.5125 65.1125Z" fill="#89D32A"/>
<path opacity="0.3" fill-rule="evenodd" clip-rule="evenodd" d="M32.9126 65.1125C29.737 65.1125 27.1626 62.5382 27.1626 59.3625C27.1626 56.1869 29.737 53.6125 32.9126 53.6125C36.0883 53.6125 38.6626 56.1869 38.6626 59.3625C38.6626 62.5382 36.0883 65.1125 32.9126 65.1125Z" fill="#89D32A"/>
</svg>
