<svg width="94" height="94" viewBox="0 0 94 94" fill="none" xmlns="http://www.w3.org/2000/svg">
<g opacity="0.2">
<rect x="1" y="1" width="92" height="92" rx="10" stroke="#89D32A" stroke-width="1.4375"/>
</g>
<path opacity="0.3" fill-rule="evenodd" clip-rule="evenodd" d="M45.7926 57.0625C43.125 57.0625 40.9626 59.225 40.9626 61.8925V69.2525C40.9626 70.1417 41.6834 70.8625 42.5726 70.8625H50.8526C51.7418 70.8625 52.4626 70.1417 52.4626 69.2525V61.8925C52.4626 59.225 50.3001 57.0625 47.6326 57.0625H45.7926Z" fill="#89D32A"/>
<path fill-rule="evenodd" clip-rule="evenodd" d="M54.7625 69.4419V61.8654C54.7625 57.9426 51.1765 54.7625 47.2537 54.7625H46.1713C42.2485 54.7625 38.6625 57.9426 38.6625 61.8654V69.4419C38.6625 69.94 38.748 70.4182 38.905 70.8625H35.3478C31.425 70.8625 28.2449 67.6824 28.2449 63.7596V42.0299L24.9186 44.9404C24.3281 45.4571 23.4306 45.3972 22.914 44.8068C22.3974 44.2163 22.4572 43.3189 23.0476 42.8022L45.777 22.914C46.3126 22.4453 47.1124 22.4453 47.648 22.914L70.3774 42.8022C70.9678 43.3189 71.0276 44.2163 70.511 44.8068C69.9944 45.3972 69.0969 45.4571 68.5064 44.9404L65.1801 42.0299V63.7596C65.1801 67.6824 62 70.8625 58.0772 70.8625H54.52C54.677 70.4182 54.7625 69.94 54.7625 69.4419Z" fill="#89D32A"/>
</svg>
