<svg width="94" height="94" viewBox="0 0 94 94" fill="none" xmlns="http://www.w3.org/2000/svg">
<g opacity="0.2">
<rect x="1" y="1" width="92" height="92" rx="10" stroke="#89D32A" stroke-width="1.4375"/>
</g>
<path fill-rule="evenodd" clip-rule="evenodd" d="M29.75 64.2499V47.3824L32.3929 45.0495C34.1499 43.4488 36.7108 43.0941 38.8368 44.1571L45.1531 47.3174C47.0545 48.1323 47.9353 50.3343 47.1204 52.2358C46.9875 52.5458 46.8164 52.8306 46.6142 53.0859L51.5465 54.0731L65.6821 49.6971C67.9452 49.0345 70.317 50.332 70.9796 52.5952C71.325 53.7749 71.1452 55.0463 70.4861 56.0841C69.9546 56.9208 69.5029 57.4999 69.0816 57.8509C68.1876 58.5956 64.1715 62.513 55.2142 67.9826C53.7313 68.8881 51.9184 69.0745 50.2822 68.4897L38.4208 64.2499H29.75Z" fill="#89D32A"/>
<path opacity="0.3" fill-rule="evenodd" clip-rule="evenodd" d="M48.1499 40.1C48.1499 45.8532 50.9881 48.15 56.1999 48.15C61.4117 48.15 64.2499 45.8532 64.2499 40.1C64.2499 35.96 61.8355 31.1312 57.0746 25.5534C56.6155 25.0156 55.7843 25.0156 55.3252 25.5534C50.5643 31.1312 48.1499 35.96 48.1499 40.1ZM25.7564 44.1251H26.3314V65.9751H25.7564C24.8037 65.9751 24.0314 66.7474 24.0314 67.7001C24.0314 68.6528 24.8037 69.4251 25.7564 69.4251H28.0564C29.0091 69.4251 29.7814 68.6528 29.7814 67.7001V42.4001C29.7814 41.4474 29.0091 40.6751 28.0564 40.6751H25.7564C24.8037 40.6751 24.0314 41.4474 24.0314 42.4001C24.0314 43.3528 24.8037 44.1251 25.7564 44.1251Z" fill="#89D32A"/>
</svg>
