<svg width="123" height="19" viewBox="0 0 123 19" fill="none" xmlns="http://www.w3.org/2000/svg">
<path d="M9.64286 1L12.3135 6.41043L18.2857 7.28336L13.9643 11.4924L14.9841 17.4387L9.64286 14.6298L4.30157 17.4387L5.32143 11.4924L1 7.28336L6.97221 6.41043L9.64286 1Z" stroke="#F3A100" stroke-width="2" stroke-linecap="round" stroke-linejoin="round"/>
<path d="M35.5714 1L38.2421 6.41043L44.2143 7.28336L39.8928 11.4924L40.9127 17.4387L35.5714 14.6298L30.2301 17.4387L31.25 11.4924L26.9286 7.28336L32.9008 6.41043L35.5714 1Z" stroke="#F3A100" stroke-width="2" stroke-linecap="round" stroke-linejoin="round"/>
<path d="M61.5 1L64.1706 6.41043L70.1429 7.28336L65.8214 11.4924L66.8413 17.4387L61.5 14.6298L56.1587 17.4387L57.1786 11.4924L52.8571 7.28336L58.8294 6.41043L61.5 1Z" stroke="#F3A100" stroke-width="2" stroke-linecap="round" stroke-linejoin="round"/>
<path d="M87.4286 1L90.0992 6.41043L96.0714 7.28336L91.75 11.4924L92.7698 17.4387L87.4286 14.6298L82.0873 17.4387L83.1071 11.4924L78.7857 7.28336L84.7579 6.41043L87.4286 1Z" stroke="#F3A100" stroke-width="2" stroke-linecap="round" stroke-linejoin="round"/>
<path d="M113.357 1L116.028 6.41043L122 7.28336L117.679 11.4924L118.698 17.4387L113.357 14.6298L108.016 17.4387L109.036 11.4924L104.714 7.28336L110.687 6.41043L113.357 1Z" stroke="#F3A100" stroke-width="2" stroke-linecap="round" stroke-linejoin="round"/>
</svg>
